<svg width="24" height="24" viewBox="0 0 24 24" fill="none" xmlns="http://www.w3.org/2000/svg">
<g clip-path="url(#clip0_79_3219)">
<path d="M1.5 24.05H12.5C13.3546 24.05 14.05 23.3546 14.05 22.5V21.5C14.05 20.6454 13.3546 19.95 12.5 19.95H1.5C0.645386 19.95 -0.05 20.6454 -0.05 21.5V22.5C-0.05 23.3546 0.645386 24.05 1.5 24.05ZM1.05 21.5C1.05 21.2525 1.25168 21.05 1.5 21.05H12.5C12.7483 21.05 12.95 21.2525 12.95 21.5V22.5C12.95 22.7475 12.7483 22.95 12.5 22.95H1.5C1.25168 22.95 1.05 22.7475 1.05 22.5V21.5Z" fill="#034863" stroke="#034863" stroke-width="0.1"/>
<path d="M9.392 5.39036C8.62892 6.15344 8.10617 6.80788 7.77908 7.30137C7.61548 7.5482 7.5013 7.75406 7.43046 7.91256C7.39502 7.99184 7.3708 8.05845 7.35656 8.11185C7.34507 8.15497 7.34083 8.18679 7.34106 8.20858L10.7782 11.616C10.7946 11.6123 10.8185 11.6051 10.8509 11.5926C10.8985 11.5742 10.9601 11.5463 11.0348 11.5077C11.1841 11.4306 11.3838 11.3122 11.6263 11.1459C12.1111 10.8134 12.7658 10.2907 13.5293 9.52765C13.5293 9.52765 13.5293 9.52764 13.5293 9.52763M9.392 5.39036L15.6287 6.719C15.6187 7.019 15.0367 8.09 13.5647 9.563L13.5293 9.52763M9.392 5.39036C10.155 4.62785 10.8094 4.10535 11.2941 3.77298C11.5364 3.60676 11.736 3.48833 11.8851 3.41126C11.9597 3.3727 12.0212 3.34476 12.0688 3.32638C12.101 3.31395 12.1247 3.30671 12.141 3.30304L15.5771 6.73812M9.392 5.39036L15.5771 6.73812M13.5293 9.52763C14.2634 8.793 14.7748 8.15944 15.1035 7.67312C15.2679 7.42991 15.3862 7.22407 15.4638 7.06127C15.5345 6.91301 15.5692 6.80489 15.5771 6.73812M13.5293 9.52763L15.5771 6.73812M6.78247 6.81515L6.78244 6.81519L6.7814 6.81683C6.67074 6.99109 6.44424 7.34775 6.32277 7.73944C6.20125 8.13131 6.18037 8.57443 6.5073 8.90135L10.0173 12.4114C10.2125 12.6066 10.4492 12.678 10.6927 12.678C10.9757 12.678 11.2684 12.5802 11.5183 12.4649C11.7689 12.3494 11.9809 12.2143 12.1026 12.1361C12.7576 11.7196 13.5383 11.071 14.3 10.3094C15.0637 9.54669 15.7143 8.76485 16.1328 8.10786L16.1328 8.10783L16.1336 8.10659C16.2447 7.93197 16.4722 7.57432 16.5943 7.18159C16.7163 6.78897 16.7375 6.34508 16.41 6.01764L12.9 2.50764C12.5731 2.18071 12.1297 2.2016 11.7373 2.32337C11.3439 2.44547 10.9855 2.67351 10.8108 2.78483C10.1548 3.20238 9.37294 3.85299 8.61027 4.61666C7.84859 5.37835 7.2 6.15917 6.78247 6.81515Z" fill="#034863" stroke="#034863" stroke-width="0.1"/>
<path d="M10.0943 14.5174L10.0944 14.5174L10.7964 13.8154C11.3979 13.2138 11.3979 12.2352 10.7964 11.6336L7.28636 8.12365C6.68483 7.52212 5.70617 7.52212 5.10464 8.12365L4.40271 8.82559C4.11026 9.117 3.95 9.50476 3.95 9.917C3.95 10.3292 4.11022 10.717 4.40167 11.0074C4.40168 11.0074 4.4017 11.0074 4.40171 11.0074L7.91164 14.5174C8.21241 14.8181 8.60831 14.969 9.003 14.969C9.39775 14.969 9.79258 14.8181 10.0943 14.5174ZM5.88117 8.90254C5.8812 8.90251 5.88123 8.90248 5.88126 8.90245C5.96877 8.8159 6.08204 8.772 6.195 8.772C6.30797 8.772 6.42124 8.8159 6.50875 8.90246C6.50878 8.90249 6.5088 8.90252 6.50883 8.90254L10.0186 12.4124C10.1911 12.5848 10.1911 12.8662 10.0186 13.0386L9.31674 13.7406C9.14421 13.9122 8.86379 13.9131 8.69035 13.7406C8.69032 13.7406 8.69029 13.7406 8.69026 13.7406L5.18036 10.2306C5.09569 10.146 5.05 10.0357 5.05 9.917C5.05 9.79833 5.09569 9.68803 5.18036 9.60336L5.88117 8.90254Z" fill="#034863" stroke="#034863" stroke-width="0.1"/>
<path d="M15.6338 6.79436C15.9346 7.09513 16.3305 7.246 16.7252 7.246C17.1198 7.246 17.5147 7.09616 17.8155 6.79536L18.5175 6.09336C19.119 5.49183 19.119 4.51317 18.5175 3.91165L15.0075 0.401648C14.406 -0.199878 13.4273 -0.199878 12.8258 0.401648L12.1238 1.10365C11.5223 1.70517 11.5223 2.68283 12.1238 3.28436L15.6338 6.79436ZM13.6033 1.18054C13.6034 1.18051 13.6034 1.18048 13.6034 1.18045C13.6907 1.09408 13.8039 1.051 13.9172 1.051C14.0305 1.051 14.1436 1.09413 14.2298 1.18036L17.7398 4.69036C17.9123 4.86283 17.9123 5.14417 17.7398 5.31665L17.0379 6.01756C16.8654 6.18912 16.584 6.18915 16.4115 6.01764C16.4115 6.01761 16.4114 6.01758 16.4114 6.01756L12.9015 2.50765C12.729 2.33517 12.729 2.05483 12.9015 1.88236L13.6033 1.18054Z" fill="#034863" stroke="#034863" stroke-width="0.1"/>
<path d="M22.6894 18.69L22.6542 18.6545C22.5222 18.7855 22.3603 18.9449 22.0997 18.946C21.8371 18.9472 21.4582 18.7871 20.8978 18.2257L20.8978 18.2256C20.3032 17.6311 16.3173 13.2613 13.6916 10.1657C13.4947 9.93256 13.1471 9.90504 12.9161 10.1019C12.684 10.2977 12.6554 10.6453 12.8523 10.8763C15.3706 13.8457 19.4286 18.3119 20.1201 19.0034C20.8139 19.6972 21.475 20.053 22.0974 20.053C22.5747 20.053 23.0207 19.8434 23.4337 19.4314L23.4338 19.4314L23.4348 19.4304C23.6097 19.2554 23.9834 18.8817 24.0442 18.275C24.1124 17.595 23.7551 16.869 23.0058 16.1196C22.3202 15.4331 17.8591 11.3801 14.8778 8.85088L14.8778 8.85086C14.647 8.65524 14.3004 8.68034 14.1023 8.91464C13.9053 9.1458 13.9341 9.49234 14.1661 9.68912C17.2737 12.3268 21.6365 16.3068 22.226 16.8973C22.4816 17.1534 22.6708 17.3918 22.7917 17.6066C22.9129 17.822 22.9633 18.0097 22.9477 18.166L22.9477 18.1661C22.9267 18.3807 22.776 18.5328 22.6541 18.6546L22.6894 18.69ZM22.6894 18.69L22.6911 18.6883C22.811 18.5685 22.9745 18.4049 22.9974 18.171M22.6894 18.69L22.6883 18.6912C22.4261 18.9513 21.9868 19.3873 20.8624 18.261C20.2664 17.665 16.2794 13.294 13.6534 10.198L22.9974 18.171M22.9974 18.171C23.0314 17.83 22.7764 17.378 22.2614 16.862L22.9974 18.171Z" fill="#034863" stroke="#034863" stroke-width="0.1"/>
</g>
<defs>
<clipPath id="clip0_79_3219">
<rect width="24" height="24" fill="white"/>
</clipPath>
</defs>
</svg>
