<svg width="124" height="134" viewBox="0 0 124 134" fill="none" xmlns="http://www.w3.org/2000/svg">
<path d="M88.5906 89.3819C88.4412 89.3819 88.2918 89.3556 88.1424 89.3028L32.6524 67.418C31.2154 66.8642 30.0816 65.77 29.4619 64.3462C28.8555 62.9355 28.8291 61.3667 29.396 59.9296L41.8678 28.2889C42.4347 26.8518 43.5157 25.718 44.9396 25.0984C46.3502 24.492 47.9322 24.4656 49.3693 25.0325L100.614 45.2299C103.58 46.39 105.031 49.765 103.871 52.7314L95.1957 74.7481C94.9452 75.3677 94.2333 75.6709 93.6136 75.4336C92.994 75.1831 92.6908 74.4712 92.9281 73.8516L101.603 51.8349C101.933 51.0043 101.919 50.0946 101.563 49.2641C101.207 48.4467 100.548 47.8139 99.7177 47.4843L48.4728 27.2869C47.6422 26.9573 46.7325 26.9705 45.902 27.3264C45.0846 27.6824 44.4518 28.3416 44.1222 29.1722L31.6504 60.8129C31.3208 61.6435 31.334 62.5664 31.69 63.3838C32.0459 64.2011 32.7051 64.834 33.5357 65.1636L89.0389 87.0352C89.6585 87.2857 89.9618 87.9976 89.7244 88.6173C89.5267 89.0919 89.0784 89.3819 88.5906 89.3819Z" fill="#02BCC1"/>
<path d="M99.1257 99.9289C98.8225 99.9289 98.5061 99.8102 98.2688 99.5729L80.84 82.1441C77.8737 79.1778 77.8737 74.3526 80.84 71.3863C83.8063 68.4199 88.6315 68.4199 91.5978 71.3863L105.269 85.0709C105.744 85.5455 105.744 86.3102 105.269 86.7848C104.795 87.2594 104.03 87.2594 103.555 86.7848L89.8839 73.1001C87.8668 71.083 84.5841 71.083 82.5539 73.1001C80.5368 75.1172 80.5368 78.4 82.5539 80.4171L99.9958 97.8459C100.457 98.3205 100.457 99.0983 99.9958 99.5729C99.7585 99.8102 99.4421 99.9289 99.1257 99.9289Z" fill="#02BCC1"/>
<path d="M86.6394 99.362C85.466 99.362 84.2795 99.1642 83.1589 98.7687L66.1124 92.6779C62.9615 91.5572 60.9576 88.4591 61.2344 85.1236L61.7486 78.8087C61.8014 78.1495 62.3946 77.6485 63.0538 77.7012C63.7262 77.754 64.2272 78.3472 64.1612 79.0064L63.6471 85.3214C63.4625 87.5626 64.8072 89.6456 66.9298 90.3971L83.9763 96.4879C86.3098 97.3185 88.9465 97.0021 91.0164 95.6442L94.2727 93.5084C94.8264 93.1393 95.5911 93.2975 95.947 93.8512C96.3162 94.4181 96.1712 95.1696 95.6043 95.5255L92.3479 97.6745C90.6472 98.7951 88.6433 99.362 86.6394 99.362Z" fill="#02BCC1"/>
<path d="M121.298 124.081C120.691 124.081 120.164 123.62 120.098 123.013L115.22 82.0255C114.89 79.3492 113.889 76.7652 112.306 74.5767C110.724 72.3882 108.589 70.6348 106.15 69.4878L97.4749 65.4404C96.8552 65.1636 96.6047 64.4385 96.8816 63.832C97.1584 63.2256 97.8835 62.9619 98.49 63.2519L107.178 67.2993C109.999 68.6045 112.451 70.6348 114.271 73.166C116.103 75.6841 117.264 78.6504 117.619 81.7354L122.511 122.723C122.59 123.383 122.115 123.989 121.443 124.068C121.39 124.077 121.342 124.081 121.298 124.081Z" fill="#02BCC1"/>
<path fill-rule="evenodd" clip-rule="evenodd" d="M87.6942 116.158C87.4481 116.158 87.2196 116.145 87.0086 116.118L74.0491 114.128C70.5686 113.587 67.8528 110.779 67.4441 107.285L66.9695 103.291C65.0183 102.157 63.634 100.219 63.2121 97.8986C63.2033 97.8371 63.1946 97.7755 63.1858 97.714L63.0276 90.1334C63.0144 89.4742 63.5549 88.9073 64.2141 88.8942C64.8865 88.881 65.4402 89.4215 65.4534 90.0807L65.6116 97.5558C66.0467 99.7311 67.7078 101.392 69.8831 101.827L85.5321 104.912C86.9032 105.176 88.2875 105.031 89.5663 104.49L96.7778 101.419C97.0942 101.274 97.4501 101.287 97.7665 101.432C98.0698 101.577 98.307 101.841 98.4125 102.17L99.4804 105.677C99.7441 106.521 99.7704 107.641 99.5463 109.105C99.2431 111.069 97.8984 112.757 96.0527 113.508C93.0204 114.734 91.0956 115.472 90.3441 115.697C89.3026 116.013 88.4193 116.158 87.6942 116.158ZM69.5271 104.227L69.8567 106.995C70.1336 109.408 72.0188 111.359 74.4183 111.728L87.3778 113.719C87.6547 113.759 88.3138 113.772 89.6454 113.376C90.3177 113.178 92.2558 112.427 95.1298 111.254C96.1977 110.832 96.9755 109.856 97.1469 108.736C97.3578 107.325 97.2523 106.653 97.1601 106.389L96.4877 104.174L90.5287 106.718C88.7885 107.457 86.9032 107.655 85.0707 107.299L69.5271 104.227Z" fill="#02BCC1"/>
<path d="M94.1531 122.592C94.0916 122.592 94.03 122.583 93.9685 122.565L85.2409 121.221C81.7077 120.68 78.8864 118.083 78.0427 114.615C77.8844 113.969 78.28 113.31 78.926 113.152C79.5852 112.994 80.2443 113.389 80.4025 114.049C81.009 116.553 83.0525 118.426 85.6101 118.821L94.3377 120.179C94.9969 120.271 95.4451 120.891 95.3528 121.563C95.2605 122.157 94.7332 122.592 94.1531 122.592Z" fill="#02BCC1"/>
<path d="M97.2521 103.739C96.6852 103.739 96.171 103.343 96.0655 102.763L94.8131 96.5539C94.6681 95.8947 95.1031 95.2487 95.7623 95.1168C96.4083 94.985 97.0543 95.4069 97.1861 96.0661L98.4386 102.289C98.5704 102.948 98.1485 103.594 97.4893 103.726C97.4102 103.735 97.3312 103.739 97.2521 103.739Z" fill="#02BCC1"/>
<path fill-rule="evenodd" clip-rule="evenodd" d="M60.879 48.8026C60.2199 48.8026 59.5739 48.6708 58.941 48.4335C57.6227 47.9193 56.5812 46.9174 56.0143 45.6122C55.4474 44.3202 55.421 42.87 55.9352 41.5516C56.4493 40.2332 57.4513 39.1917 58.7433 38.6248C60.0485 38.0448 61.4855 38.0184 62.817 38.5326C64.1354 39.0599 65.1769 40.0487 65.7438 41.3539C66.3107 42.659 66.3371 44.0961 65.8229 45.4144C65.3087 46.7328 64.3068 47.7743 63.0016 48.3544C62.3293 48.6444 61.6041 48.8026 60.879 48.8026ZM60.879 40.6024C60.4835 40.6024 60.088 40.6815 59.7189 40.8397C59.0201 41.1561 58.4796 41.723 58.1896 42.4349C57.9127 43.1468 57.9259 43.9379 58.2423 44.6366C58.5455 45.3485 59.1124 45.889 59.8243 46.1659C60.5494 46.4559 61.3273 46.4296 62.0392 46.1263C62.7379 45.8099 63.2785 45.2562 63.5685 44.5311C63.8454 43.8192 63.8322 43.0282 63.5158 42.3294C63.2125 41.6175 62.6456 41.077 61.9337 40.8001C61.591 40.6683 61.235 40.6024 60.879 40.6024Z" fill="#02BCC1"/>
<path fill-rule="evenodd" clip-rule="evenodd" d="M53.2462 45.8099C52.6002 45.8099 51.9411 45.6913 51.3082 45.4408C49.9899 44.9266 48.9483 43.9247 48.3814 42.6327C47.8146 41.3275 47.7882 39.8905 48.3024 38.5721C48.8165 37.2406 49.8185 36.1991 51.1237 35.6322C52.4157 35.0653 53.8659 35.0389 55.1842 35.5531C56.5026 36.0672 57.5441 37.0692 58.111 38.3744C58.6779 39.6664 58.7043 41.1166 58.1901 42.4349C57.676 43.7533 56.674 44.7948 55.382 45.3617C54.6964 45.6649 53.9713 45.8099 53.2462 45.8099ZM53.2462 37.6097C52.8507 37.6097 52.4552 37.702 52.0861 37.8602C51.3873 38.1634 50.8468 38.7303 50.5568 39.4554C50.2799 40.1673 50.2931 40.9584 50.6095 41.6571C50.9127 42.369 51.4796 42.9095 52.1915 43.1864C52.9166 43.4632 53.6945 43.4501 54.4064 43.1468C55.1051 42.8304 55.6457 42.2635 55.9357 41.5516C56.2126 40.8397 56.1994 40.0487 55.883 39.35C55.5797 38.638 55.0129 38.0975 54.3009 37.8206C53.9582 37.6888 53.6022 37.6097 53.2462 37.6097Z" fill="#02BCC1"/>
<path d="M63.9898 63.6079C63.8404 63.6079 63.691 63.5771 63.5415 63.5156L43.041 55.4999C42.4081 55.2494 42.1049 54.5507 42.3422 53.9311C42.5927 53.2982 43.2915 52.995 43.9243 53.2455L64.4249 61.2612C65.0577 61.4985 65.3609 62.2104 65.1236 62.83C64.9258 63.3046 64.4776 63.6079 63.9898 63.6079Z" fill="#02BCC1"/>
<path d="M61.4586 70.0811C61.3092 70.0811 61.1597 70.0503 61.0103 69.9888L40.5097 61.9731C39.8769 61.7358 39.5737 61.0239 39.811 60.4042C40.0615 59.7846 40.7602 59.4682 41.393 59.7187L61.8936 67.7344C62.5264 67.9849 62.8297 68.6836 62.5924 69.3032C62.3946 69.791 61.9464 70.0811 61.4586 70.0811Z" fill="#02BCC1"/>
<path d="M79.824 77.2661C79.6833 77.2661 79.5383 77.2354 79.3889 77.1739L65.467 71.7422C64.8473 71.4917 64.5309 70.793 64.7814 70.1601C65.0187 69.5405 65.7306 69.2373 66.3503 69.4746L80.2722 74.9195C80.8918 75.1568 81.2082 75.8687 80.9578 76.4883C80.7732 76.9629 80.3117 77.2661 79.824 77.2661Z" fill="#02BCC1"/>
<path fill-rule="evenodd" clip-rule="evenodd" d="M90.1734 31.6902C89.9493 31.6902 89.7384 31.6375 89.5406 31.5188C81.8546 26.9309 78.6509 20.3259 77.3062 15.6062C75.8692 10.4909 76.2383 6.48307 76.2647 6.32486C76.3174 5.77115 76.7261 5.33609 77.2534 5.2438C82.5137 4.32095 89.4747 0.207643 89.5538 0.168092C89.9361 -0.0560306 90.4108 -0.0560306 90.7931 0.168092C90.859 0.207643 97.8068 4.32095 103.067 5.2438C103.608 5.33609 104.016 5.79752 104.056 6.35123C104.069 6.50944 104.359 10.4909 102.869 15.5798C101.498 20.2864 98.2946 26.8782 90.8062 31.5057C90.6085 31.6243 90.3844 31.6902 90.1734 31.6902ZM78.6377 7.44547C78.6113 8.81658 78.7168 11.6906 79.6792 15.0261C81.3799 21.0115 84.9132 25.718 90.1603 29.0403C95.2887 25.6653 98.7824 20.9192 100.536 14.8942C101.498 11.5983 101.656 8.80339 101.656 7.43229C99.4547 6.93131 96.8575 5.9689 93.9044 4.55825C92.2564 3.76723 90.9117 3.02895 90.1603 2.62026C89.422 3.02895 88.0772 3.76723 86.4161 4.55825C83.4629 5.9689 80.8526 6.93131 78.6377 7.44547Z" fill="#02BCC1"/>
<path d="M90.1216 30.8201C89.4492 30.8201 88.8691 30.2795 88.8691 29.6072V1.81602C88.8691 1.14366 89.4492 0.603128 90.1216 0.603128C90.794 0.603128 91.374 1.14366 91.374 1.81602V29.6072C91.374 30.2795 90.794 30.8201 90.1216 30.8201Z" fill="#02BCC1"/>
<path d="M112.954 20.8928H111.016C110.343 20.8928 109.803 20.3127 109.803 19.6404C109.803 18.968 110.343 18.3879 111.016 18.3879H112.954C113.626 18.3879 114.167 18.968 114.167 19.6404C114.167 20.3127 113.626 20.8928 112.954 20.8928Z" fill="#02BCC1"/>
<path d="M120.481 20.8928H118.293C117.621 20.8928 117.08 20.3127 117.08 19.6404C117.08 18.968 117.621 18.3879 118.293 18.3879H120.481C121.154 18.3879 121.694 18.968 121.694 19.6404C121.694 20.3127 121.154 20.8928 120.481 20.8928Z" fill="#02BCC1"/>
<path d="M115.632 25.5994C114.959 25.5994 114.445 25.0588 114.445 24.3865V22.4485C114.445 21.7761 114.959 21.2356 115.632 21.2356C116.304 21.2356 116.818 21.7761 116.818 22.4485V24.3865C116.818 25.0588 116.304 25.5994 115.632 25.5994Z" fill="#02BCC1"/>
<path d="M115.632 18.322C114.959 18.322 114.445 17.7815 114.445 17.1091V14.9206C114.445 14.2482 114.959 13.7077 115.632 13.7077C116.304 13.7077 116.818 14.2482 116.818 14.9206V17.1091C116.818 17.7815 116.304 18.322 115.632 18.322Z" fill="#02BCC1"/>
<path d="M3.95168 97.6217H2.01367C1.3413 97.6217 0.800781 97.0416 0.800781 96.3693C0.800781 95.6969 1.3413 95.1168 2.01367 95.1168H3.95168C4.62405 95.1168 5.16457 95.6969 5.16457 96.3693C5.16457 97.0416 4.62405 97.6217 3.95168 97.6217Z" fill="#02BCC1"/>
<path d="M11.4795 97.6217H9.29102C8.63183 97.6217 8.07812 97.0416 8.07812 96.3693C8.07812 95.6969 8.63183 95.1168 9.29102 95.1168H11.4795C12.1519 95.1168 12.6924 95.6969 12.6924 96.3693C12.6924 97.0416 12.1519 97.6217 11.4795 97.6217Z" fill="#02BCC1"/>
<path d="M6.60255 102.315C5.93018 102.315 5.41602 101.775 5.41602 101.102V99.1642C5.41602 98.4918 5.93018 97.9513 6.60255 97.9513C7.27491 97.9513 7.78907 98.4918 7.78907 99.1642V101.102C7.78907 101.775 7.27491 102.315 6.60255 102.315Z" fill="#02BCC1"/>
<path d="M6.60255 95.0377C5.93018 95.0377 5.41602 94.484 5.41602 93.8248V91.6363C5.41602 90.9639 5.93018 90.4234 6.60255 90.4234C7.27491 90.4234 7.78907 90.9639 7.78907 91.6363V93.8248C7.78907 94.484 7.27491 95.0377 6.60255 95.0377Z" fill="#02BCC1"/>
<path d="M40.7349 128.34H38.7969C38.1245 128.34 37.584 127.76 37.584 127.087C37.584 126.415 38.1245 125.835 38.7969 125.835H40.7349C41.4072 125.835 41.9478 126.415 41.9478 127.087C41.9478 127.76 41.4072 128.34 40.7349 128.34Z" fill="#02BCC1"/>
<path d="M48.2627 128.34H46.0742C45.4019 128.34 44.8613 127.76 44.8613 127.087C44.8613 126.415 45.4019 125.835 46.0742 125.835H48.2627C48.9351 125.835 49.4756 126.415 49.4756 127.087C49.4756 127.76 48.9351 128.34 48.2627 128.34Z" fill="#02BCC1"/>
<path d="M43.3857 133.02C42.7134 133.02 42.1992 132.479 42.1992 131.807V129.869C42.1992 129.197 42.7134 128.656 43.3857 128.656C44.0581 128.656 44.5723 129.197 44.5723 129.869V131.807C44.5723 132.479 44.0581 133.02 43.3857 133.02Z" fill="#02BCC1"/>
<path d="M43.3857 125.742C42.7134 125.742 42.1992 125.202 42.1992 124.53V122.341C42.1992 121.669 42.7134 121.128 43.3857 121.128C44.0581 121.128 44.5723 121.669 44.5723 122.341V124.53C44.5723 125.202 44.0581 125.742 43.3857 125.742Z" fill="#02BCC1"/>
<path fill-rule="evenodd" clip-rule="evenodd" d="M55.7778 110.014C53.9849 110.014 52.5215 108.551 52.5215 106.758C52.5215 104.965 53.9849 103.502 55.7778 103.502C57.5708 103.502 59.0342 104.965 59.0342 106.758C59.0342 108.551 57.5708 110.014 55.7778 110.014ZM55.7778 105.927C55.3164 105.927 54.9473 106.297 54.9473 106.758C54.9473 107.219 55.3164 107.589 55.7778 107.589C56.2261 107.589 56.5952 107.219 56.5952 106.758C56.5952 106.297 56.2261 105.927 55.7778 105.927Z" fill="#02BCC1"/>
<path fill-rule="evenodd" clip-rule="evenodd" d="M41.8414 116.316H23.9248C21.8154 116.316 20.1016 114.602 20.1016 112.493V96.9757C20.1016 94.8663 21.8154 93.1525 23.9248 93.1525H41.8414C43.9508 93.1525 45.6647 94.8663 45.6647 96.9757V112.493C45.6647 114.602 43.9508 116.316 41.8414 116.316ZM23.9248 95.5783C23.1602 95.5783 22.5274 96.1979 22.5274 96.9757V112.493C22.5274 113.258 23.1602 113.89 23.9248 113.89H41.8414C42.6061 113.89 43.2389 113.258 43.2389 112.493V96.9757C43.2389 96.1979 42.6061 95.5783 41.8414 95.5783H23.9248Z" fill="#02BCC1"/>
<path d="M39.9293 95.5519C39.2569 95.5519 38.7164 94.9982 38.7164 94.3258V88.6832C38.7164 85.4664 36.106 82.856 32.8892 82.856C29.6724 82.856 27.0489 85.4664 27.0489 88.6832V94.3258C27.0489 94.9982 26.5083 95.5519 25.8359 95.5519C25.1636 95.5519 24.623 94.9982 24.623 94.3258V88.6832C24.623 84.1348 28.3276 80.417 32.8892 80.417C37.4376 80.417 41.1422 84.1348 41.1422 88.6832V94.3258C41.1422 94.9982 40.6017 95.5519 39.9293 95.5519Z" fill="#02BCC1"/>
<path d="M37.0435 95.5519C36.3711 95.5519 35.8306 94.9982 35.8306 94.3258V88.6964C35.8306 87.0748 34.5122 85.7432 32.8906 85.7432C31.2559 85.7432 29.9375 87.0748 29.9375 88.6964V94.3258C29.9375 94.9982 29.397 95.5519 28.7246 95.5519C28.0522 95.5519 27.5117 94.9982 27.5117 94.3258V88.6964C27.5117 85.7301 29.9243 83.3174 32.8906 83.3174C35.8438 83.3174 38.2564 85.7301 38.2564 88.6964V94.3258C38.2564 94.9982 37.7158 95.5519 37.0435 95.5519Z" fill="#02BCC1"/>
<path d="M27.1163 116.039C26.9053 116.039 26.6944 115.987 26.5098 115.881C25.9297 115.538 25.732 114.8 26.0616 114.22L28.4874 110.028V100.087L26.022 94.9059C25.732 94.2994 25.9957 93.5743 26.5889 93.2843C27.1954 93.0074 27.9205 93.2579 28.2105 93.8644L30.7681 99.296C30.8472 99.4542 30.8604 99.6256 30.8604 99.8102V110.357C30.8604 110.568 30.8209 110.779 30.7154 110.964L28.1578 115.433C27.9336 115.828 27.5382 116.039 27.1163 116.039Z" fill="#02BCC1"/>
<path d="M38.4653 116.039C38.0435 116.039 37.6348 115.828 37.4107 115.433L34.8398 110.964C34.7344 110.779 34.6816 110.568 34.6816 110.357V99.8102C34.6816 99.6256 34.708 99.4542 34.7871 99.296L37.3711 93.8644C37.6611 93.2579 38.3862 93.0074 38.9927 93.2843C39.5991 93.5743 39.8364 94.2994 39.5464 94.9059L37.0547 100.087V110.028L39.4937 114.22C39.8233 114.8 39.6387 115.538 39.0586 115.881C38.8652 115.987 38.6675 116.039 38.4653 116.039Z" fill="#02BCC1"/>
<path d="M29.5684 103.027H21.5527C20.8804 103.027 20.3398 102.513 20.3398 101.84C20.3398 101.168 20.8804 100.654 21.5527 100.654H29.5684C30.2408 100.654 30.7813 101.168 30.7813 101.84C30.7813 102.513 30.2408 103.027 29.5684 103.027Z" fill="#02BCC1"/>
<path d="M29.5684 106.323H21.5527C20.8804 106.323 20.3398 105.809 20.3398 105.136C20.3398 104.464 20.8804 103.95 21.5527 103.95H29.5684C30.2408 103.95 30.7813 104.464 30.7813 105.136C30.7813 105.809 30.2408 106.323 29.5684 106.323Z" fill="#02BCC1"/>
<path d="M29.5684 109.751H21.5527C20.8804 109.751 20.3398 109.171 20.3398 108.498C20.3398 107.826 20.8804 107.246 21.5527 107.246H29.5684C30.2408 107.246 30.7813 107.826 30.7813 108.498C30.7813 109.171 30.2408 109.751 29.5684 109.751Z" fill="#02BCC1"/>
<path d="M44.2535 103.027H36.1191C35.4468 103.027 34.9062 102.513 34.9062 101.84C34.9062 101.168 35.4468 100.654 36.1191 100.654H44.2535C44.9259 100.654 45.4664 101.168 45.4664 101.84C45.4664 102.513 44.9259 103.027 44.2535 103.027Z" fill="#02BCC1"/>
<path d="M44.2535 106.323H36.1191C35.4468 106.323 34.9062 105.809 34.9062 105.136C34.9062 104.464 35.4468 103.95 36.1191 103.95H44.2535C44.9259 103.95 45.4664 104.464 45.4664 105.136C45.4664 105.809 44.9259 106.323 44.2535 106.323Z" fill="#02BCC1"/>
<path d="M44.2535 109.751H36.1191C35.4468 109.751 34.9062 109.171 34.9062 108.498C34.9062 107.826 35.4468 107.246 36.1191 107.246H44.2535C44.9259 107.246 45.4664 107.826 45.4664 108.498C45.4664 109.171 44.9259 109.751 44.2535 109.751Z" fill="#02BCC1"/>
<path d="M16.7134 89.817C16.2388 89.817 15.7905 89.5401 15.5928 89.0787C12.666 82.1705 11.1895 74.8404 11.1895 67.2729C11.1895 59.7187 12.666 52.3754 15.5928 45.4804C18.4141 38.8094 22.4483 32.8109 27.5899 27.6692C32.7315 22.5276 38.7301 18.4934 45.3879 15.6721C52.2961 12.7453 59.6394 11.2687 67.1936 11.2687C67.866 11.2687 68.4065 11.8093 68.4065 12.4816C68.4065 13.154 67.866 13.6945 67.1936 13.6945C59.9558 13.6945 52.9421 15.1184 46.3371 17.9001C39.9562 20.6028 34.2345 24.4656 29.3038 29.3831C24.3863 34.3138 20.5235 40.0355 17.8208 46.4164C15.0259 53.0214 13.6152 60.0483 13.6152 67.2729C13.6152 74.5108 15.0259 81.5245 17.8208 88.1295C18.0845 88.7491 17.7945 89.461 17.1748 89.7247C17.0298 89.7906 16.8716 89.817 16.7134 89.817Z" fill="#02BCC1"/>
<path d="M67.1932 123.277C61.7616 123.277 56.3958 122.512 51.241 120.983C50.595 120.785 50.239 120.113 50.4236 119.467C50.6213 118.821 51.2937 118.465 51.9397 118.65C56.8704 120.113 61.9989 120.851 67.1932 120.851C69.0389 120.851 70.8978 120.759 72.7172 120.574C73.3895 120.509 73.9828 120.996 74.0487 121.656C74.1147 122.328 73.6268 122.921 72.9677 122.987C71.056 123.185 69.118 123.277 67.1932 123.277Z" fill="#02BCC1"/>
<path d="M121.314 77.1475C121.244 77.1475 121.178 77.1431 121.117 77.1343C120.457 77.0288 120.009 76.4092 120.115 75.75C120.55 72.9683 120.774 70.1206 120.774 67.2729C120.774 60.9843 119.693 54.8275 117.57 48.974C115.514 43.3182 112.534 38.0711 108.711 33.3909C108.684 33.3645 106.549 30.7674 104.663 28.9348C104.189 28.4734 104.176 27.6956 104.65 27.221C105.112 26.7332 105.876 26.7332 106.364 27.1946C108.342 29.1194 110.491 31.743 110.583 31.8616C114.591 36.7527 117.702 42.2372 119.851 48.1434C122.079 54.2738 123.2 60.7075 123.2 67.2729C123.2 70.2392 122.976 73.2188 122.501 76.1323C122.409 76.7256 121.894 77.1475 121.314 77.1475Z" fill="#02BCC1"/>
</svg>
